<svg width="800" height="400" viewBox="0 0 800 400" xmlns="http://www.w3.org/2000/svg">
  <defs>
    <linearGradient id="bg" x1="0" y1="0" x2="1" y2="1">
      <stop offset="0%" stop-color="#0e7490"/>
      <stop offset="100%" stop-color="#0891b2"/>
    </linearGradient>
  </defs>
  <rect width="800" height="400" fill="url(#bg)"/>
  <circle cx="150" cy="400" r="180" fill="rgba(255,255,255,0.04)"/>
  <circle cx="700" cy="0" r="140" fill="rgba(255,255,255,0.04)"/>
  <g transform="translate(400,180)">
    <circle cx="0" cy="0" r="60" fill="none" stroke="rgba(255,255,255,0.3)" stroke-width="8"/>
    <circle cx="0" cy="0" r="60" fill="none" stroke="#22d3ee" stroke-width="4" stroke-dasharray="280" stroke-dashoffset="80"/>
    <line x1="42" y1="42" x2="80" y2="80" stroke="#22d3ee" stroke-width="6" stroke-linecap="round"/>
  </g>
  <g transform="translate(340,260)">
    <rect x="0" y="0" width="120" height="3" rx="1.5" fill="rgba(255,255,255,0.5)"/>
    <rect x="10" y="12" width="100" height="3" rx="1.5" fill="rgba(255,255,255,0.3)"/>
    <rect x="20" y="24" width="80" height="3" rx="1.5" fill="rgba(255,255,255,0.3)"/>
  </g>
  <g transform="translate(260,80)">
    <rect x="0" y="0" width="40" height="30" rx="4" fill="none" stroke="rgba(255,255,255,0.2)" stroke-width="2"/>
    <polyline points="4,20 12,10 20,18 28,6 36,14" fill="none" stroke="#22d3ee" stroke-width="2" stroke-linecap="round" stroke-linejoin="round"/>
  </g>
  <g transform="translate(500,100)">
    <rect x="0" y="0" width="35" height="25" rx="4" fill="none" stroke="rgba(255,255,255,0.2)" stroke-width="2"/>
    <polyline points="4,16 12,6 20,14 28,4 31,8" fill="none" stroke="#22d3ee" stroke-width="2" stroke-linecap="round" stroke-linejoin="round"/>
  </g>
</svg>
