<svg width="800" height="400" viewBox="0 0 800 400" xmlns="http://www.w3.org/2000/svg">
  <defs>
    <linearGradient id="bg" x1="0" y1="0" x2="1" y2="1">
      <stop offset="0%" stop-color="#6d28d9"/>
      <stop offset="100%" stop-color="#7c3aed"/>
    </linearGradient>
  </defs>
  <rect width="800" height="400" fill="url(#bg)"/>
  <circle cx="680" cy="380" r="180" fill="rgba(255,255,255,0.04)"/>
  <circle cx="100" cy="40" r="130" fill="rgba(255,255,255,0.04)"/>
  <g transform="translate(400,160)">
    <rect x="-70" y="-50" width="140" height="100" rx="12" fill="none" stroke="rgba(255,255,255,0.2)" stroke-width="3"/>
    <circle cx="-30" cy="-15" r="12" fill="none" stroke="#c4b5fd" stroke-width="3"/>
    <circle cx="0" cy="-15" r="12" fill="none" stroke="#c4b5fd" stroke-width="3"/>
    <circle cx="30" cy="-15" r="12" fill="none" stroke="#c4b5fd" stroke-width="3"/>
    <line x1="-60" y1="20" x2="60" y2="20" stroke="rgba(255,255,255,0.2)" stroke-width="2"/>
    <rect x="-60" y="28" width="40" height="6" rx="3" fill="rgba(255,255,255,0.2)"/>
    <rect x="-10" y="28" width="30" height="6" rx="3" fill="rgba(255,255,255,0.2)"/>
  </g>
  <g transform="translate(320,270)">
    <rect x="0" y="0" width="160" height="3" rx="1.5" fill="rgba(255,255,255,0.5)"/>
    <rect x="10" y="12" width="140" height="3" rx="1.5" fill="rgba(255,255,255,0.3)"/>
    <rect x="20" y="24" width="120" height="3" rx="1.5" fill="rgba(255,255,255,0.3)"/>
  </g>
  <g transform="translate(480,80)">
    <rect x="0" y="0" width="30" height="30" rx="4" fill="none" stroke="#c4b5fd" stroke-width="2"/>
    <circle cx="15" cy="15" r="6" fill="none" stroke="#c4b5fd" stroke-width="2"/>
    <line x1="15" y1="21" x2="15" y2="30" stroke="#c4b5fd" stroke-width="2" stroke-linecap="round"/>
    <line x1="6" y1="27" x2="24" y2="27" stroke="#c4b5fd" stroke-width="2" stroke-linecap="round"/>
  </g>
  <g transform="translate(280,90)">
    <rect x="0" y="0" width="25" height="25" rx="3" fill="none" stroke="#c4b5fd" stroke-width="2"/>
    <circle cx="12.5" cy="12.5" r="4" fill="none" stroke="#c4b5fd" stroke-width="2"/>
    <line x1="12.5" y1="16.5" x2="12.5" y2="25" stroke="#c4b5fd" stroke-width="2" stroke-linecap="round"/>
    <line x1="5" y1="22" x2="20" y2="22" stroke="#c4b5fd" stroke-width="2" stroke-linecap="round"/>
  </g>
</svg>
